<svg width="174" height="103" viewBox="0 0 174 103" fill="none" xmlns="http://www.w3.org/2000/svg">
<path d="M26.0743 78.9635C28.3177 78.3196 31.241 77.9538 33.1588 76.5461C34.6763 75.4321 33.9453 73.1478 34.9763 72.0342C35.9239 71.0106 39.0016 71.4512 39.1178 69.4025C39.1595 66.2635 38.4177 63.1196 38.5738 59.9658C38.6653 57.2283 39.9096 55.5952 40.8464 53.101C41.9283 50.3121 42.6555 46.796 42.574 43.8009C42.4098 37.7803 40.7952 32.0335 45.4457 27.1826C49.1939 23.273 52.9924 24.1603 57.8696 23.2666C60.2816 22.8247 64.3377 20.4113 66.4102 22.3604C66.7452 22.796 67.0438 23.1831 67.4075 23.5967C68.7582 25.0477 68.3315 25.463 70.3816 26.5207C72.4963 27.6117 74.1176 27.9499 76.4803 28.3132C77.4481 28.494 78.2268 29.0799 78.9973 29.6465C81.3819 31.3999 82.0633 33.7707 83.4521 36.2767C84.2504 37.7172 85.1495 39.206 85.7702 40.7613C86.7309 42.6322 87.123 44.1718 87.3557 46.2856C87.3368 46.8507 87.3061 47.6183 87.2142 48.1683C87.0137 49.3683 85.8958 52.3085 84.7957 52.8873C84.7015 53.4969 84.5487 54.3689 84.6039 54.9726C84.804 57.1611 86.9534 58.9458 87.7376 60.9925C88.5357 63.8036 88.1189 65.7356 87.7404 68.6125C87.2006 70.9919 86.5869 73.3133 86.2606 75.7331C86.1821 76.2962 86.0991 76.8366 86.1125 77.4049C86.1417 78.643 86.4278 80.4331 86.0967 81.6386C85.8414 83.347 85.2711 85.431 83.55 86.1588C81.3562 87.0864 78.7605 84.6208 77.6698 83.0711C74.7669 78.9464 76.6344 75.0908 77.7648 70.803C78.2042 69.1368 78.0317 66.5909 78.3397 64.8413C78.5159 63.6438 78.5987 62.0578 78.8631 60.8995C79.6689 57.3699 76.9236 55.9253 76.2133 52.8445C75.8342 51.2006 76.2168 49.6247 76.2312 47.8996C76.2479 45.9049 76.16 43.2897 75.5542 41.3663C74.7115 39.6775 72.5958 38.5655 71.5345 37.0728C70.1909 35.1825 70.3526 32.7163 67.7896 31.7769C66.1619 31.1804 64.8935 31.6994 63.2579 31.6359C61.0002 31.5481 58.808 31.0739 56.5468 31.5317C55.7384 31.689 55.3195 31.6698 54.4938 32.0465C53.616 32.4468 52.107 33.7251 51.7782 34.6241L51.7153 34.8121C51.4779 35.298 51.2446 37.1285 51.1944 37.7446C50.9223 41.078 50.7057 44.3451 50.2946 47.673C50.1249 49.0843 49.9246 50.4919 49.6938 51.8947C49.5111 53.0314 49.0992 55.0599 49.2083 56.1332C49.4898 58.9008 50.9896 60.8103 50.5522 63.7767C50.4635 65.0583 49.4233 67.5752 48.5647 68.5132C45.8222 71.509 46.2859 75.1617 45.794 78.9198C45.6545 79.986 45.2572 80.7045 44.3057 81.3965C39.3095 85.0301 31.5612 85.1609 25.5838 84.7286C24.4383 84.6225 23.1307 84.3254 22.0585 84.2208C18.8689 83.9342 14.228 82.4176 12.2996 79.6777C8.58279 74.3967 7.27744 67.5445 5.54027 61.4662C4.64683 58.34 2.39924 55.6967 2.18576 52.2906C1.96441 48.7586 2.67329 45.5229 2.90315 42.0161C3.08497 38.1249 2.82919 34.2207 3.20797 30.3267C3.39527 28.0896 3.43474 25.9284 3.67722 23.6716C5.71896 23.0859 8.77038 21.9321 10.8279 22.9068C11.0397 23.0072 11.4471 23.4396 11.6277 23.626C11.6992 24.1763 11.6995 24.9379 11.6154 25.4895C11.1382 28.6199 11.4273 31.4332 11.6128 34.5563C11.6982 36.2086 11.6705 37.8649 11.5299 39.5135C11.4337 40.6434 11.2535 41.6924 11.0601 42.8015C10.9275 43.5628 10.6008 44.9731 10.649 45.69C10.8099 48.0788 13.0617 49.4516 13.1523 51.9745C13.2254 54.0117 12.0875 55.3098 11.9712 57.2569C11.9254 58.3041 11.9387 59.4864 12.2288 60.4982C12.5865 61.7452 13.326 62.8492 13.9045 63.9996C14.1858 64.559 14.4418 65.1488 14.6713 65.7318C15.0176 66.6116 15.3398 67.493 15.6183 68.3973C15.9225 69.385 16.1319 70.4222 16.5688 71.3628C18.0555 74.5828 20.3747 73.6053 21.7876 74.706C23.2454 75.8416 23.4576 78.0259 26.0743 78.9635ZM43.9171 60.6077C43.1057 61.79 42.3642 65.311 43.1709 66.4556C43.267 66.4904 43.3681 66.5342 43.4669 66.5502C44.3111 66.0707 44.8705 65.2287 45.067 64.2894C45.2329 63.4975 46.006 60.5298 45.0365 60.1215L44.9242 60.1495L43.9171 60.6077ZM78.0891 36.6041C78.0268 35.4951 78.0674 34.6907 77.1516 33.8702C76.5987 33.3748 74.6716 32.3836 74.0086 32.2136C73.7108 33.7114 76.6524 36.2926 78.0891 36.6041ZM82.0113 49.9104C82.3671 49.9915 82.3428 50.0514 82.5863 49.9145C82.9122 48.8017 83.0577 45.0914 81.8182 44.5119C81.1486 45.4277 80.6564 46.0263 80.828 47.2717C80.9297 48.0098 81.5745 49.3197 82.0113 49.9104Z" fill="#3B3B3B"/>
<path d="M102.753 26.6217C103.143 28.4078 102.877 29.9746 103.12 31.749C103.27 32.8451 103.775 34.2347 104.162 35.3344C105.105 38.0108 106.146 41.4369 108.554 43.1541C109.859 44.0854 111.335 43.8475 112.693 44.7625C114.136 45.6665 114.342 47.7456 115.536 48.7911C119.259 52.0511 124.451 50.2443 128.929 50.5562C131.161 50.7116 134.124 51.5189 136.283 51.4237C137.507 51.3696 139.359 48.5869 140.243 47.8132C141.29 46.8807 142.549 46.2851 143.843 45.7941C145.76 45.2653 147.896 45.2814 148.937 43.2278C150.29 40.5576 151.715 37.8378 152.789 35.0379C153.042 34.3808 153.429 33.7766 153.608 33.0909C154.151 30.1864 152.265 27.4451 154.47 24.842C156.516 22.3902 159.244 23.6076 159.844 26.4936C160.405 29.1919 159.712 31.5149 159.546 34.1691C159.473 35.9885 159.872 37.7161 159.48 39.5237C158.726 43.005 155.788 45.338 153.731 47.8664C150.707 51.5823 147.682 52.3288 143.704 54.561C143.057 54.924 142.317 55.7668 141.693 56.2077C139.644 57.8183 137.831 58.7074 135.312 59.2548C132.513 59.6829 130.12 59.5601 127.335 59.2501C125.06 58.9851 122.814 58.5421 120.555 58.164C118.554 57.829 115.932 57.443 114.212 56.2911C110.856 54.0447 108.502 50.44 105.611 47.6783C104.942 46.9301 104.168 46.317 103.43 45.6642C102.547 44.8611 100.595 43.8458 99.98 42.9189C98.7059 40.999 98.7213 37.6064 98.4704 35.3127C98.1585 32.462 97.082 27.8924 97.8175 25.1417C100.267 24.5729 101.042 24.6822 102.753 26.6217ZM124.168 54.4199C124.438 54.5025 124.705 54.5935 124.968 54.6928C126.02 54.9893 127.144 55.3796 128.248 55.323C128.982 55.2854 132.906 55.8696 132.588 54.5242C132.201 54.0198 129.956 53.6601 129.37 53.6749C128.692 53.6921 124.46 53.715 124.054 53.9441C124.019 54.2109 124.036 54.1428 124.168 54.4199Z" fill="#3C3B3B"/>
<path d="M107.069 78.0317C106.966 79.2067 107.464 80.7413 106.795 81.8724C104.908 85.0658 99.2186 86.1503 97.6327 82.0916C96.9702 80.3964 98.4062 77.2985 99.2783 75.8372C99.8906 74.8114 100.486 73.8349 101.455 73.0499C103.813 70.4658 106.265 70.2115 109.019 68.6195C109.724 68.2153 110.419 67.7916 111.101 67.3488C113.321 65.8874 113.088 65.8533 115.687 65.5073C117.093 65.3201 119.067 64.3428 120.784 64.304C121.84 64.2801 123.429 63.6194 124.578 63.7078C133.932 63.5812 144.176 64.8726 152.577 69.1492C154.654 70.2255 157.346 72.5319 158.699 74.4155C159.502 75.5327 160.511 79.8783 160.927 81.3013C161.289 82.5875 161.988 84.5706 161.5 85.8623C160.544 86.8906 158.94 86.8645 157.84 86.0854C156.782 85.3347 156.807 83.9386 156.635 82.7837C156.19 79.9368 154.493 78.5798 152.163 77.1907C150.318 76.0904 148.554 75.1983 146.669 74.1898C145.422 73.4421 144.413 72.3927 143.269 71.5062C141.532 70.159 139.088 70.0995 137.001 70.4487C135.203 70.7493 133.404 72.5778 131.569 72.4982C130.402 72.4477 129.149 71.4649 128.178 70.8987C125.57 69.4891 123.328 69.8826 120.726 70.8875C117.56 72.1103 114.871 73.6233 111.868 75.1233C109.828 76.1422 108.56 75.9764 107.069 78.0317Z" fill="#3C3B3B"/>
</svg>
